HIERARCHY
ROOT pelvis
{
  OFFSET 0 100 0
  CHANNELS 6 Xposition Yposition Zposition Zrotation Xrotation Yrotation
  JOINT pelvis_right_femur
  {
    OFFSET -10.78128 -3.44521 -0.5502486
    CHANNELS 3 Zrotation Xrotation Yrotation
    JOINT right_femur_tibia
    {
      OFFSET -0.8047443 -44.0398 -0.1307829
      CHANNELS 3 Zrotation Xrotation Yrotation
      JOINT right_tibia_foot
      {
        OFFSET 3.006224 -47.83518 -5
        CHANNELS 3 Zrotation Xrotation Yrotation
        End Site
        {
          OFFSET 0 -5 15
        }
      }
    }
  }
  JOINT pelvis_left_femur
  {
    OFFSET 10.78128 -3.44521 -0.5502486
    CHANNELS 3 Zrotation Xrotation Yrotation
    JOINT left_femur_tibia
    {
      OFFSET 0.8047443 -44.0398 -0.1307829
      CHANNELS 3 Zrotation Xrotation Yrotation
      JOINT left_tibia_foot
      {
        OFFSET -4.370144 -48.10324 -4.275266
        CHANNELS 3 Zrotation Xrotation Yrotation
        End Site
        {
          OFFSET 0 -5 15
        }
      }
    }
  }
  JOINT pelvis_spine1
  {
    OFFSET 0 6.468898 -3.129235
    CHANNELS 3 Zrotation Xrotation Yrotation
    JOINT spine1
    {
      OFFSET 0 23.15396 4.99043
      CHANNELS 3 Zrotation Xrotation Yrotation
      JOINT spine2
      {
        OFFSET 0 20.79997 -5.064912
        CHANNELS 3 Zrotation Xrotation Yrotation
        JOINT neck
        {
          OFFSET 0 14.38658 9.616178
          CHANNELS 3 Zrotation Xrotation Yrotation
          End Site
          {
            OFFSET 0 20 0
          }
        }
      }
      JOINT right_manubrium
      {
        OFFSET -5.722621 16.35077 3.967754
        CHANNELS 3 Zrotation Xrotation Yrotation
        JOINT right_clavicle
        {
          OFFSET -13.16364 1.694482 -4.693211
          CHANNELS 3 Zrotation Xrotation Yrotation
          JOINT right_humerus
          {
            OFFSET -28.5034 -0.3100689 -2.792744
            CHANNELS 3 Zrotation Xrotation Yrotation
            JOINT right_radius
            {
              OFFSET -25.15693 0.02248979 -1.271978
              CHANNELS 3 Zrotation Xrotation Yrotation
              End Site
              {
                OFFSET -15 0 0
              }
            }
          }
        }
      }
      JOINT left_manubrium
      {
        OFFSET 5.722621 16.35077 3.967754
        CHANNELS 3 Zrotation Xrotation Yrotation
        JOINT left_clavicle
        {
          OFFSET 13.16364 1.694482 -4.693211
          CHANNELS 3 Zrotation Xrotation Yrotation
          JOINT left_humerus
          {
            OFFSET 29.39168 -1.063119 -2.237045
            CHANNELS 3 Zrotation Xrotation Yrotation
            JOINT left_radius
            {
              OFFSET 24.59957 -0.9528479 0.9047498
              CHANNELS 3 Zrotation Xrotation Yrotation
              End Site
              {
                OFFSET 15 -0 -0
              }
            }
          }
        }
      }
    }
  }
}
MOTION
Frames: 11
Frame Time: 0.0416666666667
-1639.639 82.00557 2248.604 -7.681771 -4.309521 -66.09099 5.281122 6.415575 3.594344 -0 10.92097 -0 -5.478858 -9.383456 -4.128418 -0.537959 -14.90053 -4.282222 -0 52.1733 -0 -4.9448 -6.407702 18.13859 1.726119 -1.805325 7.766074 -0.5738994 16.0792 -6.59827 2.248513 18.61015 0.8455809 -1.733037 -20.96487 5.303115 -7.219839 -30.11862 10.26053 97.34982 21.35413 -13.40306 -0 0 23.3241 -19.48669 13.89117 12.7237 -0.3323121 -22.48233 -7.598198 -86.71963 11.22572 31.53577 0 0 -25.45625 1.312766 9.237722 13.98585
-1644.472 81.66149 2250.914 -7.224627 -3.893649 -66.81346 5.061477 10.27626 3.240725 -0 9.94227 -0 -5.332745 -12.13661 -3.257596 0.9184882 -20.12702 -3.70214 -0 41.55599 -0 -4.868545 -6.727448 18.95764 1.563878 -2.236699 8.089096 -0.3862858 15.87218 -6.371353 2.025163 17.98361 0.440133 -2.192638 -20.65453 4.999857 -6.646665 -31.73752 10.43868 94.84189 20.96822 -10.49049 -0 0 27.32902 -19.94865 15.76384 14.43518 -0.2971694 -21.03446 -6.932533 -88.39158 10.88648 35.32701 0 0 -22.52296 0.6128435 9.652089 14.48454
-1649.378 80.81037 2253.363 -6.451783 -3.036029 -67.44219 4.898234 13.40797 2.785886 -0 9.634347 -0 -5.109432 -14.78174 -2.364813 2.235227 -23.87217 -3.245034 -0 30.35388 -0 -4.828611 -6.680192 19.52664 1.308535 -2.69442 8.329816 -0.191815 15.42003 -6.059251 1.731797 17.52239 0.2786419 -2.518109 -20.47264 4.802053 -6.056372 -33.1828 10.61246 92.31962 20.3614 -7.64275 -0 0 30.90611 -20.61371 17.14872 16.31352 -0.1017173 -19.63542 -6.206482 -90.19305 10.75115 38.73979 0 0 -19.53618 0.09757537 10.02934 14.8114
-1654.491 79.69335 2256.022 -5.489593 -2.079566 -68.10354 4.536224 15.91246 2.320444 -0 10.13808 -0 -4.939407 -16.74813 -1.520337 2.846747 -25.98769 -3.215198 -0 21.21121 -0 -4.692012 -6.451365 19.9167 1.015586 -3.095689 8.482986 -0.04699549 14.82754 -5.66325 1.431219 17.29488 0.36792 -2.659292 -20.45472 4.732589 -5.534817 -34.29612 10.7485 90.10778 19.59578 -5.173133 -0 0 33.65486 -21.40726 17.84987 18.10993 0.2160207 -18.4241 -5.524261 -92.01809 10.86102 41.46387 0 0 -16.63541 -0.2125345 10.3051 14.98196
-1659.897 78.55047 2258.924 -4.595383 -1.450498 -68.85215 3.796047 17.9291 1.946791 -0 11.74133 -0 -4.858277 -17.21905 -0.7739786 2.453546 -26.64003 -3.825858 -0 15.64782 -0 -4.394914 -6.318574 20.22914 0.7441631 -3.369517 8.551274 0.01096449 14.22619 -5.215167 1.188372 17.31843 0.6499295 -2.612915 -20.58688 4.785848 -5.142116 -34.97312 10.82207 88.44279 18.79235 -3.314308 -0 0 35.3462 -22.20559 17.86074 19.57367 0.5971028 -17.49558 -4.973058 -93.72819 11.21338 43.31229 0 0 -13.95804 -0.3377468 10.46352 15.03011
-1665.632 77.59292 2262.07 -3.999693 -1.433302 -69.61552 2.63767 19.50186 1.760004 -0 14.97304 -0 -4.799803 -15.46297 -0.1607557 1.120301 -26.13067 -5.046548 -0 13.72414 -0 -3.898607 -6.45986 20.5047 0.5318889 -3.487301 8.539634 -0.02061828 13.7151 -4.762371 1.042292 17.56171 1.037021 -2.41635 -20.81864 4.935367 -4.886805 -35.19284 10.83118 87.39027 18.05944 -2.145368 -0 0 35.97767 -22.90608 17.34297 20.56299 0.9898921 -16.87603 -4.592655 -95.20933 11.77375 44.26761 0 0 -11.59926 -0.3156322 10.54326 14.98299
-1671.672 77.027 2265.435 -3.803266 -2.055058 -70.20715 1.175169 20.39533 1.80893 -0 20.53461 -0 -4.725033 -11.16514 0.2473043 -0.8451254 -24.61211 -6.612279 -0 14.55566 -0 -3.151004 -6.904639 20.67298 0.3892976 -3.458446 8.45215 -0.1200202 13.33606 -4.346696 1.00057 17.97194 1.454416 -2.120182 -21.09411 5.149964 -4.740619 -34.99517 10.79087 86.8879 17.45615 -1.625399 -0 0 35.68914 -23.4591 16.50766 21.0604 1.364563 -16.54166 -4.380208 -96.3968 12.49774 44.42364 0 0 -9.611054 -0.1783046 10.60214 14.85227
-1677.909 77.04693 2268.956 -3.97897 -3.071281 -70.40385 -0.2839175 19.99403 2.05289 -0 28.79859 -0 -4.683572 -4.792641 0.3203396 -2.974798 -22.02497 -8.115292 -0 16.8377 -0 -2.14465 -7.57552 20.61695 0.3126215 -3.30632 8.289587 -0.2586786 13.09304 -3.999938 1.053951 18.50032 1.854933 -1.767663 -21.37477 5.405068 -4.670802 -34.43303 10.71863 86.84758 17.0032 -1.688731 -0 0 34.62984 -23.84716 15.52427 21.10354 1.70895 -16.46111 -4.317432 -97.25096 13.34889 43.88241 0 0 -8.0447 0.05868146 10.68525 14.63762
-1684.129 77.75247 2272.51 -4.424924 -4.034323 -70.06741 -1.276406 17.50265 2.361166 -0 39.01985 -0 -4.741597 2.201619 -0.05307967 -4.713836 -18.29338 -9.157555 -0 19.13124 -0 -0.9970149 -8.342975 20.2897 0.2983161 -3.053728 8.049343 -0.4078985 12.98304 -3.756253 1.189649 19.10479 2.208224 -1.394561 -21.64455 5.682833 -4.662164 -33.54823 10.62657 87.22683 16.70746 -2.317593 -0 0 32.89003 -24.05039 14.51071 20.72072 2.015432 -16.62879 -4.393149 -97.7127 14.29544 42.69453 0 0 -7.01641 0.3970596 10.81408 14.33328
-1690.07 79.04274 2275.95 -5.028696 -4.516914 -69.2424 -1.447803 12.51604 2.607618 -0 48.97814 -0 -4.903765 7.836818 -0.8584271 -5.6501 -13.57144 -9.560062 -0 20.2462 -0 0.06626354 -9.115333 19.75371 0.3474823 -2.726733 7.731763 -0.5365552 13.00765 -3.66185 1.39104 19.73621 2.489999 -1.038289 -21.9083 5.966395 -4.725109 -32.38899 10.52102 88.03942 16.5703 -3.546624 -0 0 30.5258 -24.03202 13.55387 19.92282 2.271155 -17.07092 -4.606712 -97.68442 15.28838 40.87471 0 0 -6.745117 0.8480947 10.98016 13.93806
-1695.534 80.60032 2279.167 -5.686998 -4.406967 -68.13682 -0.8577027 5.535652 2.730959 -0 55.73534 -0 -5.143608 10.66091 -1.917008 -5.772831 -8.300663 -9.471459 -0 19.69678 -0 0.8363609 -9.962336 19.11722 0.4591849 -2.363253 7.35009 -0.6134013 13.16116 -3.764304 1.63026 20.33282 2.688254 -0.7362722 -22.18688 6.237855 -4.891924 -31.03698 10.40455 89.32112 16.58231 -5.408739 -0 0 27.61938 -23.75364 12.6992 18.73532 2.457822 -17.82598 -4.956448 -97.05827 16.24242 38.4508 0 0 -7.50726 1.419153 11.1375 13.46421
